<?xml version="1.0" standalone="no"?>
<!DOCTYPE svg PUBLIC "-//W3C//DTD SVG 1.1//EN" "http://www.w3.org/Graphics/SVG/1.1/DTD/svg11.dtd" >
<svg xmlns="http://www.w3.org/2000/svg">
<metadata>
Created by FontForge 20120731 at Fri Jun  9 17:37:09 2017
 By admin
</metadata>
<defs>
<font id="iconfont" horiz-adv-x="1024" >
  <font-face 
    font-family="iconfont"
    font-weight="500"
    font-stretch="normal"
    units-per-em="1024"
    panose-1="2 0 6 3 0 0 0 0 0 0"
    ascent="896"
    descent="-128"
    x-height="792"
    bbox="-17 -128 1042 896"
    underline-thickness="0"
    underline-position="0"
    unicode-range="U+0078-E863"
  />
<missing-glyph 
 />
    <glyph glyph-name=".notdef" 
 />
    <glyph glyph-name=".notdef" 
 />
    <glyph glyph-name=".null" horiz-adv-x="0" 
 />
    <glyph glyph-name="nonmarkingreturn" horiz-adv-x="341" 
 />
    <glyph glyph-name="x" unicode="x" horiz-adv-x="1001" 
d="M281 543q-27 -1 -53 -1h-83q-18 0 -36.5 -6t-32.5 -18.5t-23 -32t-9 -45.5v-76h912v41q0 16 -0.5 30t-0.5 18q0 13 -5 29t-17 29.5t-31.5 22.5t-49.5 9h-133v-97h-438v97zM955 310v-52q0 -23 0.5 -52t0.5 -58t-10.5 -47.5t-26 -30t-33 -16t-31.5 -4.5q-14 -1 -29.5 -0.5
t-29.5 0.5h-32l-45 128h-439l-44 -128h-29h-34q-20 0 -45 1q-25 0 -41 9.5t-25.5 23t-13.5 29.5t-4 30v167h911zM163 247q-12 0 -21 -8.5t-9 -21.5t9 -21.5t21 -8.5q13 0 22 8.5t9 21.5t-9 21.5t-22 8.5zM316 123q-8 -26 -14 -48q-5 -19 -10.5 -37t-7.5 -25t-3 -15t1 -14.5
t9.5 -10.5t21.5 -4h37h67h81h80h64h36q23 0 34 12t2 38q-5 13 -9.5 30.5t-9.5 34.5q-5 19 -11 39h-368zM336 498v228q0 11 2.5 23t10 21.5t20.5 15.5t34 6h188q31 0 51.5 -14.5t20.5 -52.5v-227h-327z" />
    <glyph glyph-name="font-bigger" unicode="&#xe600;" 
d="M894 66l-95 230h-268l-97 -230h-103l257 572l33 67h85l37 -67l254 -572h-103zM667 616l-103 -243h204zM229 193h-77v103h-102v77h102v102h77v-102h102v-77h-102v-103z" />
    <glyph glyph-name="font-smaller" unicode="&#xe601;" 
d="M749 180l-59 139h-176l-62 -139h-59l161 354l21 42h54l23 -42l157 -354h-60zM604 520l-63 -142h124zM215 398h178v-40h-178v40z" />
    <glyph glyph-name="pack-up" unicode="&#xe620;" 
d="M12 182q0 -42 29.5 -71.5t70.5 -29.5q47 0 78 37l320 320l318 -318q30 -39 79 -39q42 0 71.5 29.5t29.5 71.5t-31 72v0l-401 401h-1q-28 25 -65 25q-45 0 -75 -34l-389 -389q-34 -30 -34 -75v0z" />
    <glyph glyph-name="align-right" unicode="&#xe625;" 
d="M-11 758h1051v-74h-1051v74zM-11 306h1051v-74h-1051v74zM310 532h731v-74h-731v74zM315 87h727v-74h-727v74z" />
    <glyph glyph-name="align-left" unicode="&#xe633;" 
d="M-17 758h1051v-74h-1051v74zM-17 306h1051v-74h-1051v74zM-14 532h731v-74h-731v74zM-17 87h727v-74h-727v74z" />
    <glyph glyph-name="align-both-ends" unicode="&#xe694;" 
d="M978 740h-932q-13 0 -22 9t-9 22t9 22t22 9h932q13 0 22 -9t9 -22t-9 -22t-22 -9zM978 554h-932q-13 0 -22 9t-9 22t9 22t22 9h932q13 0 22 -9t9 -22t-9 -22t-22 -9zM978 367h-932q-13 0 -22 9.5t-9 22t9 22t22 9.5h932q13 0 22 -9.5t9 -22t-9 -22t-22 -9.5zM978 181
h-932q-13 0 -22 9t-9 22t9 22t22 9h932q13 0 22 -9t9 -22t-9 -22t-22 -9zM978 -5h-932q-13 0 -22 9t-9 21.5t9 22t22 9.5h932q13 0 22 -9.5t9 -22t-9 -21.5t-22 -9z" />
    <glyph glyph-name="align-center" unicode="&#xe630;" 
d="M43 -49h945v-79h-945v79zM201 660h624v-79h-624v79zM201 187h624v-79h-624v79zM43 423h941v-78h-941v78zM43 896h945v-79h-945v79z" />
    <glyph glyph-name="brush" unicode="&#xe66f;" 
d="M10 488l322 136l366 -437l-230 -256zM381 679l360 -393l153 125l-327 377zM774 777v-131h186v126zM567 788l16 11l328 -377l-17 -11zM774 777h11v-131h-11v131zM332 624l-22 -5l377 -448l11 16z" />
    <glyph glyph-name="line-distance" unicode="&#xe67d;" 
d="M963 704h-577q-13 0 -21 8t-8 21.5t8 21.5t21 8h577q13 0 21 -8t8 -21.5t-8 -21.5t-21 -8zM963 471h-577q-13 0 -21 8t-8 21.5t8 21.5t21 8h577q13 0 21 -8t8 -21.5t-8 -21.5t-21 -8zM963 238h-577q-13 0 -21 8t-8 21.5t8 21.5t21 8h577q13 0 21 -8t8 -21.5t-8 -21.5
t-21 -8zM963 11h-577q-13 0 -21 8t-8 21t8 21t21 8h577q13 0 21 -8t8 -21t-8 -21t-21 -8zM247 203l-65 -64v495l65 -64q5 -5 22.5 -5t23.5 5q9 9 9 20.5t-9 20.5l-116 117q-9 8 -20.5 8t-20.5 -8l-117 -117q-8 -9 -8 -20.5t8.5 -20t20 -8.5t20.5 8l64 64v-495l-64 64
q-9 9 -20.5 9t-20 -8.5t-8.5 -20.5t8 -20l117 -117q6 -6 23.5 -6t22.5 6l117 117q9 8 9 20t-9 20q-35 18 -52 0z" />
    <glyph glyph-name="page" unicode="&#xe690;" 
d="M87 886h819v-405h-819v405zM133 886h727v-359h-727v359zM671 241v46h-584v-405h46v359h538zM855 20h51v-138h-51v138zM671 20v221h-538v-359h722v138h-184zM906 20v52h-184v215h-51v-267h235zM906 72l-36 -36l-179 205l31 46zM722 210v-138h118z" />
    <glyph glyph-name="niantie" unicode="&#xe69a;" 
d="M49 794h809v-849h-809v849zM73 774h756v-785h-756v785zM107 745h717v-751h-717v751zM926 -69h-551v585h376v29h-410v-649h620v444h-35v-409zM375 -69h551v409h-175v176h-376v-585zM961 340v29h-176v176h-34v-205h210zM785 369h93l-93 127v-127zM800 530l-15 15l-19 -20
l19 -29v34h15zM887 355l44 9l-5 5h-48zM785 530v-34l93 -127h48l-126 161h-15zM419 438h269v-34h-269v34zM419 369h269v-34h-269v34zM414 301h269v-34h-269v34zM414 228h459v-34h-459v34zM414 160h459v-34h-459v34zM414 96h459v-34h-459v34zM419 23h459v-34h-459v34z
M551 789q0 40 -28.5 68.5t-69 28.5t-69 -28.5t-28.5 -68.5h-122v-122h429v122h-112zM483 769h-59v59h59v-59zM649 779h-103q0 33 -25.5 58t-62.5 25q-36 0 -59.5 -23t-23.5 -60h-117v-93h391v93zM483 769h-59v59h59v-59zM336 696h313v-24h-313v24z" />
    <glyph glyph-name="redo" unicode="&#xe6cb;" 
d="M917 512l-298 250v-500zM427 597h256v-170h-256q-45 0 -76 -31t-31 -76t31 -76t76 -31h64v-170h-64q-116 0 -197 81t-81 196t81 196t197 81z" />
    <glyph glyph-name="copy" unicode="&#xe863;" 
d="M622 750h-439q-46 0 -78 -32.5t-32 -77.5v-658q0 -46 32 -78t78 -32h439q45 0 77 32t32 78v658q0 45 -32 77.5t-77 32.5zM841 896h-439q-35 0 -63 -20.5t-40 -52.5h469q15 0 26 -11t11 -26v-768h36q46 0 78 32.5t32 77.5v658q0 46 -32 78t-78 32z" />
    <glyph glyph-name="picture" unicode="&#xe61b;" 
d="M0 828h1024v-888h-1024v888zM68 9h888v750h-888v-750zM68 759h888v-750h-888v750zM785 384l-150 -218l-396 423l-137 -301v-245h820v68zM614 555v0q0 -29 20 -49t48.5 -20t48.5 20t20 49v0v0q0 28 -20 48t-48.5 20t-48.5 -20t-20 -48v0z" />
    <glyph glyph-name="paste" unicode="&#xe602;" 
d="M625 515q23 -21 38.5 -36t24 -25t11.5 -16.5t3 -12.5v-355q0 -30 -9 -54.5t-26.5 -43t-41.5 -29t-53 -10.5h-388q-23 0 -44.5 7.5t-38.5 22.5t-27.5 39.5t-10.5 56.5v388q0 26 11 49t28.5 40.5t39 27.5t42.5 10h348q8 0 15 -2t17 -8t24.5 -17.5t36.5 -31.5zM492 128
q11 0 19 11t8 22t-8 21.5t-19 10.5h-275q-11 0 -19.5 -10.5t-8.5 -21.5t8.5 -22t19.5 -11h275zM492 316q11 0 19 14t8 26t-8 22.5t-19 10.5h-214q-12 0 -19.5 -10.5t-7.5 -22.5t7.5 -26t19.5 -14h214zM813 828q76 0 111 -39t35 -104v-606q0 -77 -35 -107.5t-110 -30.5h-48
v137h10q27 0 42 10.5t15 42.5v487q0 21 -8 37t-20.5 27t-28 17.5t-31.5 6.5h-114v-24q0 -17 -12 -29t-29 -12h-140q-18 0 -29 12t-11 29v24h-119q-23 0 -39 -16t-16 -40v-16h-110v53q0 68 38.5 104.5t104.5 36.5h544z" />
    <glyph glyph-name="undo" unicode="&#xe72f;" 
d="M107 512l298 250v-500zM597 597h-256v-170h256q45 0 76 -31t31 -76t-31 -76t-76 -31h-64v-170h64q116 0 197 81t81 196t-81 196t-197 81z" />
    <glyph glyph-name="cut" unicode="&#xe62c;" 
d="M646 441l-7 -22q-8 -15 -18.5 -49.5t-16.5 -49.5q3 -3 7 -10t7 -11l156 269q69 183 -78 304l-142 -269l78 -148zM392 264q-67 33 -135 0q-66 -33 -98 -99q-41 -70 -29 -142q12 -83 71 -113q67 -33 134 0q50 20 85 78l7 7q0 4 3.5 7.5t3.5 6.5l57 92zM349 52
q-21 -43 -63 -64q-32 -16 -50 -7q-21 11 -21 42q0 19 0.5 29.5t5.5 26.5t15 29q21 43 64 64q32 16 49 7q22 -11 22 -42.5t-22 -84.5zM865 165q-43 77 -98 99q-77 38 -135 0q-21 -14 -49 -43q-43 71 -50 92q11 22 21.5 57t21.5 56q-15 29 -71 134t-90 171.5t-66 133.5
q-29 -27 -49.5 -54.5t-36 -65t-14 -84.5t22.5 -100l318 -552q0 -3 3.5 -6.5t3.5 -7.5l7 -7q30 -50 85 -78q76 -38 134 0q60 40 71 113q11 82 -29 142v0zM781 -5q-23 -11 -50 7q-32 21 -63 64q-22 42 -22 85q0 32 22 42q22 11 49 -7q32 -21 64 -64q21 -42 21 -84
q0 -32 -21 -43z" />
    <glyph glyph-name="bold" unicode="&#xe62e;" 
d="M746 419q35 17 70 52q43 58 43 139q0 75 -43 147q-31 50 -88 73.5t-147 30.5h-442v-954h408q86 0 130 8q30 6 52 18t52 34q33 22 61 79q43 72 43 147q0 93 -35 139q-35 59 -104 87zM321 696h200q52 0 104 -17q52 -26 52 -87q0 -63 -35 -87q-39 -26 -95 -26h-226v217z
M633 89q-52 -17 -95 -17h-217v251h226q52 0 86 -17q61 -30 61 -104q0 -77 -61 -113z" />
    <glyph glyph-name="underline" unicode="&#xe634;" 
d="M91 -16h832v-74h-832v74zM649 805l84 -10l21 -21v-401q0 -64 -9.5 -106t-32.5 -73q-23 -30 -56 -41t-91 -11q-106 0 -158 52q-24 24 -38.5 69t-14.5 100v411l21 21l74 10v53h-358v-53l73 -10l22 -21v-411q0 -105 10 -137q21 -63 42 -84q10 -15 29 -29.5t33.5 -22.5
t42.5 -22q20 -10 48 -15t49 -5.5t61 -0.5q180 0 253.5 73.5t73.5 231.5v422l21 21l84 10v53h-284v-53z" />
    <glyph glyph-name="italic" unicode="&#xe603;" 
d="M378 852v-201h148l-229 -536h-187v-201h536v201h-148l229 536h187v201h-536z" />
    <glyph glyph-name="table" unicode="&#xe604;" 
d="M15 814h989v-901h-989v901zM56 763h907v-154h-907v154zM56 614h907v-655h-907v655zM241 614h51v-655h-51v655zM486 614h52v-655h-52v655zM686 614h51v-655h-51v655zM56 461h907v-87h-907v87zM56 164h907v-51h-907v51z" />
    <glyph glyph-name="draft" unicode="&#xe62b;" horiz-adv-x="1065" 
d="M903 625h-740q-9 0 -16 6.5t-7 16t7 16.5t16 7h740q9 0 15.5 -7t6.5 -16.5t-6.5 -16t-15.5 -6.5zM805 -8h-542q-25 0 -42.5 17.5t-17.5 42.5v619h661v-619q0 -25 -17.5 -42.5t-41.5 -17.5zM248 625v-573q0 -6 4.5 -10t10.5 -4h542q5 0 9.5 4t4.5 10v573h-571zM714 625
h-360q-23 0 -39 16.5t-16 38.5v40q0 23 16 39.5t39 16.5h360q23 0 39.5 -16.5t16.5 -39.5v-40q0 -22 -16.5 -38.5t-39.5 -16.5zM354 730q-10 0 -10 -10v-40q0 -9 10 -9h360q10 0 10 9v40q0 10 -10 10h-360zM722 261l-29 50l-19 -40l-44 3l29 -50h-83l-36 -36l36 -36h84
q47 0 67 35q19 35 -5 74zM534 433q0 1 0.5 1.5l0.5 0.5l1 -1l55 -93l49 -13l13 50l-55 94q-25 39 -63 39t-63 -40l-35 -58l43 1l19 -38zM408 224v1l49 86l-13 47l-50 -11l-49 -86q-24 -41 -4.5 -75t66.5 -34h90l-26 36l26 36h-89z" />
    <glyph glyph-name="list" unicode="&#xe687;" 
d="M0 435h205v-102h-205v102zM328 435h696v-102h-696v102zM0 742h205v-102h-205v102zM328 742h696v-102h-696v102zM0 128h205v-102h-205v102zM328 128h696v-102h-696v102z" />
  </font>
</defs>
</svg>
